<svg height="496pt" viewBox="0 -2 496 496" width="496pt" xmlns="http://www.w3.org/2000/svg"><path d="m112.878906 318.71875.722656.082031c-1.042968 6.800781-1.601562 13.679688-1.601562 20.640625v36c-47.519531-28.402344-82-74.160156-96.480469-127.28125l.480469-.160156 47.039062-7.839844c2.160157 7.519532 4.882813 14.800782 8.082032 21.917969 9.839844 21.601563 24.078125 40.882813 41.757812 56.640625zm0 0" fill="#e6e9ed"/><path d="m288.558594 384.558594 24.480468 24.480468c-2.878906-.71875-5.917968-1.039062-9.039062-1.039062-11.039062 0-21.039062 4.480469-28.320312 11.679688-7.199219 7.28125-11.679688 17.28125-11.679688 28.320312v8h-32v-8c0-16.398438-9.921875-30.480469-24-36.640625v-59.359375c0-22.078125 17.921875-40 40-40 10.960938 0 20.878906 4.398438 28.078125 11.519531-2.636719 6.480469-4.078125 13.601563-4.078125 21.039063 0 15.042968 5.921875 29.363281 16.558594 40zm0 0" fill="#e6e9ed"/><g fill="#cf9e76"><path d="m313.039062 409.039062 46.960938 46.960938h-96v-8c0-11.039062 4.480469-21.039062 11.679688-28.320312 7.28125-7.199219 17.28125-11.679688 28.320312-11.679688 3.121094 0 6.160156.320312 9.039062 1.039062zm0 0"/><path d="m192 408c5.679688 0 11.121094 1.199219 16 3.28125v.078125c14.078125 6.160156 24 20.242187 24 36.640625v8h-80v-8c0-22.078125 17.921875-40 40-40zm0 0"/><path d="m63.039062 240.160156-47.039062 7.839844-.480469.160156c-4.960937-18-7.519531-36.878906-7.519531-56.160156 0-6.640625 2.71875-12.640625 7.039062-16.960938 4.320313-4.320312 10.320313-7.039062 16.960938-7.039062s12.640625 2.71875 16.960938 7.039062c4.320312 4.320313 7.039062 10.320313 7.039062 16.960938 0 16.640625 2.398438 32.800781 7.039062 48.160156zm0 0"/><path d="m320 224c30.71875 19.199219 52.078125 49.519531 60.320312 83.921875l-.160156.238281-3.601562-3.601562c-10.636719-10.636719-24.957032-16.558594-40-16.558594h-8c-23.757813 0-44.160156 14.71875-52.480469 35.519531-7.199219-7.121093-17.117187-11.519531-28.078125-11.519531-22.078125 0-40 17.921875-40 40v59.28125c-4.878906-2.082031-10.320312-3.28125-16-3.28125-22.078125 0-40 17.921875-40 40v8h-56c-8.800781 0-16.800781-3.601562-22.640625-9.359375-5.757813-5.839844-9.359375-13.839844-9.359375-22.640625 0-17.679688 14.320312-32 32-32h16v-52.558594c0-6.960937.558594-13.839844 1.601562-20.640625 5.917969-38.800781 28.476563-73.601562 62.398438-94.800781l.078125-.800781c2.5625.5625 5.203125.800781 7.921875.800781h32v8c0 17.679688 14.320312 32 32 32 8.800781 0 16.800781-3.601562 22.640625-9.359375 5.757813-5.839844 9.359375-13.839844 9.359375-22.640625v-8h32c2.71875 0 5.359375-.238281 7.921875-.800781zm0 0"/></g><path d="m260.960938 204.960938 14.078124 14.078124c1.441407 1.441407 2.5625 3.121094 3.359376 4.960938h1.601562v8c0 8.800781-3.601562 16.800781-9.359375 22.640625-5.839844 5.757813-13.839844 9.359375-22.640625 9.359375-17.679688 0-32-14.320312-32-32v-8h1.601562c.796876-1.839844 1.917969-3.519531 3.359376-4.960938l14.078124-14.078124c3.199219-3.199219 7.519532-4.960938 12-4.960938h1.921876c4.480468 0 8.800781 1.761719 12 4.960938zm0 0" fill="#ef7385"/><path d="m340.320312 155.679688c7.199219 7.28125 11.679688 17.28125 11.679688 28.320312 0 19.359375-13.761719 35.519531-32.078125 39.199219-2.5625.5625-5.203125.800781-7.921875.800781h-33.601562c-.796876-1.839844-1.917969-3.519531-3.359376-4.960938l-14.078124-14.078124c-3.199219-3.199219-7.519532-4.960938-12-4.960938h-1.921876c-4.480468 0-8.800781 1.761719-12 4.960938l-14.078124 14.078124c-1.441407 1.441407-2.5625 3.121094-3.359376 4.960938h-33.601562c-2.71875 0-5.359375-.238281-7.921875-.800781-7.839844-1.519531-14.878906-5.4375-20.398437-10.878907-7.199219-7.28125-11.679688-17.28125-11.679688-28.320312 0-22.078125 17.921875-40 40-40h33.601562c.71875 1.839844 1.917969 3.519531 3.359376 4.960938l14.078124 14.078124c3.199219 3.199219 7.519532 4.960938 12 4.960938h1.921876c4.480468 0 8.800781-1.761719 12-4.960938l14.078124-14.078124c1.441407-1.441407 2.640626-3.121094 3.359376-4.960938h33.601562c11.039062 0 21.039062 4.480469 28.320312 11.679688zm0 0" fill="#cf9e76"/><path d="m344.480469 32c24.238281 0 46.398437 13.679688 57.199219 35.359375l10.800781 21.601563c2.320312 4.640624 3.519531 9.757812 3.519531 14.960937 0 7.199219-2.320312 14-6.320312 19.519531-4 5.519532-9.679688 9.839844-16.558594 12.160156l-25.121094 8.398438h-2.160156c1.441406-7.199219 2.160156-14.558594 2.160156-22 0-36.558594-17.199219-69.121094-44-90zm0 0" fill="#cf9e76"/><path d="m94.320312 67.359375c10.800782-21.679687 32.960938-35.359375 57.199219-35.359375h20.480469c-3.679688 2.878906-7.28125 6.078125-10.640625 9.359375-20.558594 20.640625-33.359375 49.199219-33.359375 80.640625 0 7.441406.71875 14.800781 2.160156 22h-2.160156l-25.121094-8.398438c-13.679687-4.5625-22.878906-17.28125-22.878906-31.679687 0-5.203125 1.199219-10.320313 3.519531-14.960937zm0 0" fill="#cf9e76"/><path d="m296 16c-30.398438 25.359375-48 62.878906-48 102.480469 0-39.601563-17.601562-77.121094-48-102.480469 13.039062-5.121094 27.199219-8 42-8h12c14.800781 0 28.960938 2.878906 42 8zm0 0" fill="#cf9e76"/><path d="m368 122c0 7.441406-.71875 14.800781-2.160156 22-1.359375 6.960938-3.359375 13.839844-6 20.398438l-7.839844 19.601562c0-11.039062-4.480469-21.039062-11.679688-28.320312-7.28125-7.199219-17.28125-11.679688-28.320312-11.679688h-33.519531c.960937-2.160156 1.519531-4.558594 1.519531-7.039062 0-9.359376-7.601562-16.960938-16.960938-16.960938h-15.039062v-1.519531c0-39.601563 17.601562-77.121094 48-102.480469 10.078125 4 19.519531 9.359375 27.921875 16h.078125c26.800781 20.878906 44 53.441406 44 90zm0 0" fill="#e6e9ed"/><path d="m184 144c-22.078125 0-40 17.921875-40 40l-7.839844-19.601562c-2.640625-6.558594-4.640625-13.4375-6-20.398438-1.441406-7.199219-2.160156-14.558594-2.160156-22 0-31.441406 12.800781-60 33.359375-80.640625 3.359375-3.28125 6.960937-6.480469 10.640625-9.359375h.078125c8.402344-6.640625 17.84375-12 27.921875-16 30.398438 25.359375 48 62.878906 48 102.480469v1.519531h-15.039062c-4.640626 0-8.960938 1.921875-12 4.960938-3.039063 3.039062-4.960938 7.359374-4.960938 12 0 2.480468.558594 4.878906 1.519531 7.039062zm0 0" fill="#e6e9ed"/><path d="m280 136.960938c0 2.480468-.558594 4.878906-1.519531 7.039062h-.082031c-.71875 1.839844-1.917969 3.519531-3.359376 4.960938l-14.078124 14.078124c-3.199219 3.199219-7.519532 4.960938-12 4.960938h-1.921876c-4.480468 0-8.800781-1.761719-12-4.960938l-14.078124-14.078124c-1.441407-1.441407-2.640626-3.121094-3.359376-4.960938h-.082031c-.960937-2.160156-1.519531-4.558594-1.519531-7.039062 0-4.640626 1.921875-8.960938 4.960938-12 3.039062-3.039063 7.359374-4.960938 12-4.960938h30.078124c9.359376 0 16.960938 7.601562 16.960938 16.960938zm0 0" fill="#b27946"/><path d="m276.078125 323.519531c8.320313-20.800781 28.722656-35.519531 52.480469-35.519531h8c15.042968 0 29.363281 5.921875 40 16.558594l7.441406 7.441406 7.441406-7.441406c10.636719-10.636719 24.957032-16.558594 40-16.558594 31.199219 0 56.558594 25.359375 56.558594 56.558594v1.203125c0 14.316406-5.359375 28.078125-15.121094 38.476562l-88.878906 95.761719-95.441406-95.441406c-10.636719-10.636719-16.558594-24.957032-16.558594-40 0-7.4375 1.441406-14.558594 4.078125-21.039063zm0 0" fill="#ef7385"/><path d="m431.433594 280c-17.160156 0-33.304688 6.664062-45.480469 18.753906-8.601563-29.273437-25.855469-54.753906-49.882813-73.289062 13.800782-8.050782 23.21875-22.753906 23.839844-39.695313l7.363282-18.410156c2.140624-5.351563 3.757812-10.847656 5.109374-16.390625l23.273438-7.761719c16.953125-5.648437 28.34375-21.445312 28.34375-39.3125 0-6.390625-1.511719-12.804687-4.375-18.535156l-10.785156-21.558594c-12.273438-24.554687-36.945313-39.800781-64.390625-39.800781h-18.121094c-20.28125-15.007812-45.265625-24-72.367187-24h-11.921876c-27.101562 0-52.085937 8.992188-72.367187 24h-18.121094c-27.453125 0-52.125 15.246094-64.398437 39.800781l-10.785156 21.566407c-2.855469 5.730468-4.367188 12.136718-4.367188 18.527343 0 17.859375 11.390625 33.664063 28.335938 39.3125l23.273437 7.761719c1.359375 5.542969 2.976563 11.039062 5.109375 16.390625l7.359375 18.410156c.625 16.964844 10.066406 31.6875 23.890625 39.726563-25.601562 19.726562-43.542969 47.039062-51.441406 77.832031-28.414063-29.914063-44.527344-69.761719-44.527344-111.328125 0-17.648438-14.351562-32-32-32s-32 14.351562-32 32c0 76.039062 39.769531 147.527344 104 187.824219v4.175781h-8c-22.054688 0-40 17.945312-40 40s17.945312 40 40 40h260.6875l27.519531 27.519531 94.527344-101.800781c11.136719-11.976562 17.265625-27.582031 17.265625-43.925781v-1.21875c0-35.605469-28.96875-64.574219-64.566406-64.574219zm-78.304688-120.625c-8.410156-13.976562-23.671875-23.375-41.128906-23.375h-24.097656c-.519532-13.3125-11.4375-24-24.871094-24h-6.671875c1.710937-33.246094 16.417969-64.207031 41.191406-86.519531 36.761719 16.664062 62.449219 53.632812 62.449219 96.558593 0 12.824219-2.367188 25.359376-6.871094 37.335938zm-145.03125-23.375h-24.097656c-17.457031 0-32.71875 9.398438-41.128906 23.367188-4.503906-11.96875-6.871094-24.503907-6.871094-37.328126 0-42.925781 25.6875-79.894531 62.457031-96.558593 24.765625 22.3125 39.480469 53.273437 41.191407 86.519531h-6.671876c-13.441406 0-24.351562 10.6875-24.878906 24zm24.871094-8h30.0625c4.945312 0 8.96875 4.023438 8.96875 8.96875 0 2.359375-.953125 4.671875-2.625 6.34375l-14.0625 14.0625c-1.671875 1.671875-3.984375 2.625-6.34375 2.625h-1.9375c-2.359375 0-4.671875-.953125-6.34375-2.625l-14.0625-14.0625c-1.671875-1.671875-2.625-3.984375-2.625-6.34375 0-4.945312 4.023438-8.96875 8.96875-8.96875zm161.558594-57.046875 10.785156 21.550781c1.757812 3.519532 2.6875 7.464844 2.6875 11.390625 0 10.96875-6.992188 20.664063-17.398438 24.144531l-15.121093 5.039063c.328125-3.664063.519531-7.335937.519531-11.039063 0-31.597656-12.175781-60.34375-31.953125-82.039062h.402344c21.351562 0 40.542969 11.855469 50.078125 30.953125zm-140.566406-54.953125c9.183593 0 18.046874 1.296875 26.550781 3.503906-14.65625 14.921875-25.695313 32.71875-32.511719 52.160156-6.816406-19.441406-17.855469-37.238281-32.511719-52.160156 8.503907-2.207031 17.367188-3.503906 26.550781-3.503906zm-148.5625 112.039062c-10.40625-3.480468-17.398438-13.175781-17.398438-24.144531 0-3.925781.929688-7.863281 2.6875-11.382812l10.785156-21.558594c9.535156-19.097656 28.726563-30.953125 50.078125-30.953125h.402344c-19.777344 21.695312-31.953125 50.441406-31.953125 82.039062 0 3.703126.191406 7.386719.519531 11.039063zm78.601562 23.960938h29.167969c.679687.902344 1.34375 1.824219 2.144531 2.625l14.0625 14.0625c4.648438 4.648438 11.082031 7.3125 17.65625 7.3125h1.9375c6.574219 0 13.007812-2.664062 17.65625-7.3125l14.0625-14.0625c.800781-.800781 1.464844-1.722656 2.144531-2.625h29.167969c17.648438 0 32 14.351562 32 32s-14.351562 32-32 32h-29.046875c-.695313-.9375-1.457031-1.816406-2.265625-2.625l-14.0625-14.0625c-4.648438-4.648438-11.082031-7.3125-17.65625-7.3125h-1.9375c-6.574219 0-13.007812 2.664062-17.65625 7.3125l-14.0625 14.0625c-.816406.816406-1.570312 1.6875-2.265625 2.625h-29.046875c-17.648438 0-32-14.351562-32-32s14.351562-32 32-32zm40 77.191406.847656-1.863281c.488282-1.0625 1.089844-1.945313 1.777344-2.640625l13.375-13.375v28.6875h16v-28.6875l13.375 13.375c.6875.695312 1.289062 1.578125 1.777344 2.640625l.847656 1.863281v2.808594c0 13.230469-10.769531 24-24 24s-24-10.769531-24-24zm-192-53.191406c8.824219 0 16 7.175781 16 16 0 14.183594 1.761719 28.167969 5.039062 41.71875l-31.4375 5.242188c-3.609374-15.265626-5.601562-30.992188-5.601562-46.960938 0-8.824219 7.175781-16 16-16zm-6.113281 78.464844 31.632812-5.273438c9.433594 27.695313 25.65625 52.914063 47.519531 73.152344-.664062 5.632812-1.039062 11.34375-1.039062 17.128906v21.246094c-37.167969-25.992188-64.449219-63.671875-78.113281-106.253906zm70.113281 193.535156c-13.230469 0-24-10.769531-24-24s10.769531-24 24-24h24v-60.527344c0-43.914062 21.984375-84.046875 58.847656-107.753906 1.695313.175781 3.410156.28125 5.152344.28125h24c0 22.054688 17.945312 40 40 40s40-17.945312 40-40h24c1.726562 0 3.433594-.105469 5.113281-.28125 21 13.496094 37.3125 32.386719 47.40625 54.6875-8.625-4.148438-18.105469-6.40625-27.953125-6.40625h-8c-23.414062 0-43.894531 12.566406-55.214844 31.28125-7.542968-4.722656-16.246093-7.28125-25.351562-7.28125-26.472656 0-48 21.527344-48 48v48.71875c-2.609375-.4375-5.273438-.71875-8-.71875-26.472656 0-48 21.527344-48 48zm104 0v-16h-16v16h-24c0-17.648438 14.351562-32 32-32s32 14.351562 32 32zm56 0h-16c0-17.71875-9.679688-33.191406-24-41.503906v-54.496094c0-17.648438 14.351562-32 32-32 6.832031 0 13.28125 2.222656 18.710938 6.167969-1.742188 5.832031-2.710938 12.007812-2.710938 18.398437 0 17.242188 6.71875 33.464844 18.910156 45.65625l10.890625 10.890625c-21.578125 4.695313-37.800781 23.917969-37.800781 46.886719zm56 0v-16h-16v16h-24c0-17.648438 14.351562-32 32-32 1.785156 0 3.535156.3125 5.289062.609375l31.398438 31.390625zm168-102.207031c0 12.296875-4.609375 24.03125-12.976562 33.046875l-83.230469 89.640625-89.570313-89.570313c-9.167968-9.167968-14.222656-21.375-14.222656-34.34375 0-26.773437 21.792969-48.566406 48.566406-48.566406h8c12.96875 0 25.167969 5.054688 34.34375 14.222656l13.089844 13.089844 13.089844-13.089844c9.167968-9.167968 21.375-14.222656 34.34375-14.222656 26.773437 0 48.566406 21.792969 48.566406 48.566406zm0 0"/><path d="m192 64c-17.648438 0-32 14.351562-32 32h16c0-8.824219 7.175781-16 16-16s16 7.175781 16 16h16c0-17.648438-14.351562-32-32-32zm0 0"/><path d="m304 64c-17.648438 0-32 14.351562-32 32h16c0-8.824219 7.175781-16 16-16s16 7.175781 16 16h16c0-17.648438-14.351562-32-32-32zm0 0"/><path d="m432.398438 312h-.398438l.273438 16c5.984374.097656 11.03125 3.558594 13.503906 9.28125 2.109375 4.863281 2.460937 12.160156-2.847656 18l-64.851563 71.335938 11.84375 10.765624 64.847656-71.335937c8.726563-9.605469 10.902344-23.0625 5.6875-35.125-4.960937-11.464844-15.664062-18.730469-28.058593-18.921875zm0 0"/></svg>